<svg xmlns="http://www.w3.org/2000/svg" aria-hidden="true" style="position:absolute;width:0;height:0;overflow:hidden"><defs>
<symbol id="icon-aroow-left" viewBox="0 0 32 32"><path d="M16 0c8.837 0 16 7.163 16 16s-7.163 16-16 16S0 24.837 0 16 7.163 0 16 0z" opacity=".3" style="fill:var(--color1, #000)"/><path fill="#fff" d="m16.936 16-3.96-3.96 1.133-1.13L19.2 16l-5.091 5.091-1.131-1.132L16.937 16z" style="fill:var(--color2, #fff)"/></symbol>
<symbol id="icon-aroow-right" viewBox="0 0 32 32"><path d="M16 0c8.837 0 16 7.163 16 16s-7.163 16-16 16S0 24.837 0 16 7.163 0 16 0z" opacity=".3" style="fill:var(--color1, #000)"/><path fill="#fff" d="m15.062 16 3.96 3.96-1.131 1.132L12.8 16l5.091-5.091 1.131 1.131-3.96 3.96z" style="fill:var(--color2, #fff)"/></symbol></defs></svg>